<?xml version="1.0" encoding="utf-8"?>
<!-- Generator: Adobe Illustrator 18.0.0, SVG Export Plug-In . SVG Version: 6.00 Build 0)  -->
<!DOCTYPE svg PUBLIC "-//W3C//DTD SVG 1.1//EN" "http://www.w3.org/Graphics/SVG/1.1/DTD/svg11.dtd">
<svg version="1.1" id="Layer_1" xmlns="http://www.w3.org/2000/svg" xmlns:xlink="http://www.w3.org/1999/xlink" x="0px" y="0px"
	 width="272.1px" height="103.4px" viewBox="0 0 272.1 103.4" enable-background="new 0 0 272.1 103.4" xml:space="preserve">
<path fill="#363336" d="M85.3,75.3c0,7.2,0,14.4,0,21.7c0,0.8,0,1.7-0.2,2.5c-0.3,2-1.9,3.6-3.5,3.7c-2.7,0.2-4.5-1-5.3-3.2
	c-0.1-0.3,0.1-0.9-0.5-0.9c-0.4,0-0.5,0.4-0.7,0.7c-2.4,3.2-5.9,4-9.5,3.3c-3.4-0.6-5.4-3-6.4-6.3c-0.7-2.2-1-4.4-1.1-6.6
	c0-5.5-0.1-10.9,0-16.4c0-2.7,0.5-5.3,1.5-7.9c2.6-6.7,11.7-6.5,15.2-2.2c0.1,0.2,0.2,0.3,0.4,0.5c0.2,0.2,0.4,0.7,0.8,0.4
	c0.3-0.2,0.2-0.5,0.2-0.8c0-3.6,0-7.2,0-10.8c0-1.2,0-2.3,0.6-3.4c0.9-1.7,2.5-2.6,4.5-2.4c2,0.2,3.4,1.3,3.8,3.2
	c0.2,0.9,0.3,1.8,0.3,2.8c0,3.7,0,7.4,0,11.1C85.3,68,85.3,71.6,85.3,75.3z M76.1,81.9c0-3.1,0.2-6.2-0.5-9.2
	c-0.3-1.2-0.6-2.3-1.4-3.2c-0.8-1-1.9-1.5-3.3-1.3c-1.3,0.2-2,1-2.5,2.2c-0.3,1-0.5,2-0.6,3c-0.4,4.6-0.3,9.2-0.2,13.8
	c0.1,2,0,4.1,0.8,6.1c0.5,1.2,1.2,2,2.5,2.2c1.4,0.2,2.5-0.3,3.3-1.4c0.7-0.9,1.1-2,1.3-3.1C76.3,88,76.1,84.9,76.1,81.9z"/>
<path fill="#363336" d="M169.6,81.4c0.1,6.8-0.2,12.3,0.5,17.8c0.3,2.3-1.3,3.9-3.6,4c-3.6,0.1-4.4-0.4-5.6-3.9
	c-0.1-0.2-0.1-0.5-0.4-0.5c-0.4,0-0.5,0.4-0.7,0.7c-3.5,5.1-11.9,5.1-15.3,0c-0.8-1.2-1.3-2.6-1.5-4.1c-0.4-2.3-0.3-4.7,0-7
	c0.6-3.6,2.5-6.3,5.8-8c3-1.6,6-3.1,8.9-4.7c2.4-1.3,3.2-3.5,2.4-5.8c-0.5-1.5-1.6-2.3-3.2-2.4c-1.9-0.1-3.3,0.7-3.9,2.2
	c-0.2,0.5-0.3,1-0.5,1.5c-0.7,3.4-3.1,4.8-6.5,3.7c-2.1-0.7-3.1-2.1-2.9-4.3c0.4-4.8,3.4-8.2,8.4-9.5c4.1-1,8.2-0.7,12.1,0.6
	c3.5,1.2,5.3,3.8,5.7,7.5c0.1,0.7,0.2,1.5,0.2,2.2C169.6,75.1,169.6,78.9,169.6,81.4z M160.5,85.9c0-1.1,0-2.2,0-3.4
	c0-0.9-0.2-1.2-1.1-0.6c-1.5,1.1-3.1,2.2-4.6,3.4c-2.4,2.1-3.2,5.4-2,8.4c0.9,2.3,3,2.9,5,1.5c0.7-0.5,1.2-1.2,1.6-2
	C160.6,90.9,160.5,88.4,160.5,85.9z"/>
<path fill="#363336" d="M245.1,81.8c0-3.6,0-7.1,0.4-10.7c0.7-6.1,3.8-9.3,9.8-10.2c2.3-0.4,4.7-0.4,7,0c4.9,0.8,7.8,3.6,9,8.5
	c0.8,3.2,0.8,6.5,0.6,9.7c-0.2,2.6-2,4-4.7,4c-3.6,0-7.2,0.1-10.8,0c-1.2,0-1.7,0.3-1.6,1.5c0.2,2.8-0.2,5.7,0.6,8.4
	c0.6,1.9,1.8,2.9,3.4,2.9c1.4,0,2.7-1.2,3.3-2.8c0.3-0.9,0.3-1.9,0.4-2.9c0.4-2.1,1.7-3.2,4-3.4c2.7-0.2,4.3,0.7,4.9,2.9
	c1.2,4.6-1.7,10.4-6.3,12.2c-4.6,1.8-9.3,1.7-13.8-0.2c-3.9-1.6-5.3-5-5.9-9C245,89.2,245.1,85.5,245.1,81.8z M258.8,76.7
	C258.8,76.7,258.8,76.7,258.8,76.7c1,0,2,0,2.9,0c0.7,0,1-0.3,1-0.9c0-1.5,0-3-0.2-4.5c-0.2-1.9-1.5-3.2-3.1-3.3
	c-2.9-0.3-4.4,1.3-4.6,4.8c-0.2,4-0.2,4,3.5,4C258.5,76.7,258.6,76.7,258.8,76.7z"/>
<path fill="#363336" d="M24.1,81.9c0-5.4,0-10.8,0-16.3c0-2.5,1.1-4.1,2.9-4.8c2.9-1,5.3,0.4,6.1,3.3c0.1,0.4,0,0.9,0.5,1
	c0.5,0.1,0.5-0.5,0.7-0.8c2.1-3,6.2-4.4,10.3-3.4c3.2,0.8,5.4,3.3,5.9,7c0.1,1,0.2,1.9,0.3,2.9c0,8.9,0,17.8,0,26.7
	c0,1.1-0.1,2.3-0.6,3.3c-0.9,1.9-2.7,2.7-5.2,2.4c-1.5-0.2-3.1-1.9-3.3-3.8c-0.1-0.9-0.1-1.8-0.1-2.6c0-7.7,0-15.3,0-23
	c0-0.4,0-0.9,0-1.3c-0.1-1.9-1.1-3.3-2.6-3.7c-1.8-0.5-3.6,0.3-4.7,2c-1,1.7-1.1,3.5-1.1,5.4c0,7.1,0,14.3,0,21.4
	c0,1.6-0.2,3.2-1.4,4.5c-1.4,1.5-3.2,1.6-4.9,1.1c-1.7-0.5-2.7-2.1-2.9-3.9C24,98.4,24,97.7,24,97C24,91.9,24,86.9,24.1,81.9
	C24,81.9,24,81.9,24.1,81.9z"/>
<path fill="#363336" d="M110.9,83.4c0-5.9-0.2-10.3,1-14.7c1.2-4.5,4.1-7.1,8.6-7.8c3.7-0.6,7.4-0.6,10.9,1.1c4,2,6.4,6.7,5.7,11.1
	c-0.4,2.3-2.1,3.7-4.5,3.7c-2.7,0-4.1-1.1-4.5-3.6c-0.1-0.8-0.1-1.7-0.3-2.5c-0.3-1.7-1.3-2.7-2.9-2.9c-1.8-0.2-3,0.6-3.7,2.3
	c-0.4,1.1-0.6,2.2-0.6,3.3c-0.1,5.7-0.2,11.3,0.1,17c0.1,1.3,0.3,2.6,1,3.8c0.7,1.3,1.8,1.9,3.3,1.7c1.5-0.2,2.5-1.1,2.7-2.7
	c0.2-1.3,0.3-2.7,0.5-4.1c0.4-2.7,1.9-4,4.4-4c2.4,0,4.2,1.8,4.5,4.4c0.7,6.5-3.1,12.1-9.5,13.4c-3.9,0.8-7.9,0.5-11.5-1.7
	c-3.3-2.1-4.3-5.4-4.8-9C110.9,88.8,110.9,85.3,110.9,83.4z"/>
<path fill="#363336" d="M227.1,103.2c-4.2,0-5.8-1.2-6.8-5.5c-2.5-10.3-4.9-20.6-7.4-30.9c-0.4-1.8-0.6-3.6,1-5
	c1.6-1.4,3.5-1.5,5.5-0.9c1.6,0.5,2.5,1.8,2.8,3.3c0.8,4,1.6,8,2.3,12.1c0.8,4.6,1.6,9.2,2.4,13.8c0.1,0.3,0,0.8,0.5,0.8
	c0.4,0,0.4-0.5,0.5-0.8c1.1-6.2,2.1-12.4,3.2-18.6c0.5-2.6,0.6-5.3,1.5-7.9c0.9-2.6,3.1-3.6,5.9-2.8c2.4,0.7,3.5,2.6,2.9,5.4
	c-0.9,4.2-2,8.5-3,12.7c-1.5,6.2-3,12.4-4.4,18.7C233.1,101.2,231.8,103.4,227.1,103.2z"/>
<path fill="#363336" d="M178.4,82.5c0-4.1-0.1-8.1,0-12.2c0-1.4-0.2-2-1.8-2c-2.4-0.1-3.3-1.2-3.2-3.5c0-2.1,1.1-3.2,3.3-3.3
	c1.4,0,1.8-0.5,1.7-1.8c-0.1-1.9-0.1-3.9,0-5.9c0.2-3.3,2-5,5-4.8c2.4,0.1,4,1.8,4.2,4.4c0.1,2.2,0.1,4.4,0,6.6
	c0,1.1,0.3,1.5,1.4,1.4c0.5-0.1,1,0,1.5,0c2.2,0.2,3.3,1.2,3.3,3.3c0.1,2.1-0.9,3.2-3.1,3.5c-0.1,0-0.3,0-0.4,0
	c-2.6,0.2-2.6,0.2-2.6,2.8c0,6.8,0,13.7,0,20.5c0,2.6,0.3,3,2.9,3.4c1.7,0.2,2.7,1,2.9,2.4c0.3,2.1-0.4,3.7-2,4.5
	c-2.8,1.4-8.5,0.6-10.9-1.5c-1.7-1.5-2.2-3.5-2.2-5.7C178.3,90.7,178.4,86.6,178.4,82.5z"/>
<path fill="#1BACA7" d="M186.2,13.3c1.5,0,2.7,1.2,2.9,2.9c0.2,1.5-0.6,2.7-2.1,3.1c-5.4,1.6-10.9,3.1-16.3,4.7
	c-11.2,3.2-22.4,6.4-33.6,9.7c-6.9,2-13.9,4-20.8,6c-1.5,0.4-2.9-0.4-3.5-2.1c-0.6-1.7,0.1-3.3,1.7-3.8c3.7-1.1,7.5-2.2,11.2-3.3
	c12-3.5,24.1-6.9,36.1-10.4c7.6-2.2,15.3-4.4,22.9-6.6C185.3,13.5,185.8,13.4,186.2,13.3z"/>
<path fill="#363336" d="M94.2,81.8c0-5,0-10.1,0-15.1c0-0.8,0-1.6,0.2-2.3c0.4-2.4,2-3.8,4.4-3.8c2.4,0,4.1,1.4,4.4,3.8
	c0.1,0.8,0.2,1.7,0.2,2.5c0,10.1,0,20.1,0,30.2c0,1.3,0,2.5-0.6,3.7c-0.9,1.9-2.6,2.7-5.1,2.4c-1.4-0.2-2.9-1.7-3.3-3.4
	c-0.2-0.9-0.2-1.7-0.2-2.6C94.2,92,94.2,86.9,94.2,81.8z"/>
<path fill="#363336" d="M206.5,82c0,5.4,0,10.7,0,16.1c0,1.8-0.4,3.4-2,4.4c-2.4,1.6-6.2,0.6-6.9-2.7c-0.2-0.9-0.2-1.7-0.2-2.6
	c0-10.2,0-20.4,0-30.6c0-0.6,0-1.3,0.1-1.9c0.4-2.7,2.1-4.2,4.6-4.1c2.5,0.1,4.2,1.7,4.3,4.4c0.1,3.8,0.1,7.5,0.1,11.3
	C206.5,78.1,206.5,80.1,206.5,82C206.5,82,206.5,82,206.5,82z"/>
<path fill="#363336" d="M6.4,81.8c0-5,0-10.1,0-15.1c0-0.8,0-1.6,0.1-2.3c0.3-2.3,2-3.8,4.3-3.8c2.4-0.1,4.1,1.2,4.6,3.6
	c0.1,0.8,0.2,1.5,0.2,2.3c0,10.3,0,20.5,0,30.8c0,1.1,0,2.2-0.5,3.2c-1.1,2.3-2.3,3-5.2,2.7c-1.6-0.1-3.1-1.8-3.4-3.8
	c-0.1-0.8-0.1-1.7-0.1-2.5C6.4,91.9,6.4,86.8,6.4,81.8z"/>
<path fill="#1BACA7" d="M82.1,42.2c-4.3-0.5-8.3-0.9-12.3-1.3c-10.1-1.1-20.3-2.3-30.4-3.4c-4.2-0.5-8.3-1-12.5-1.4
	c-2.6-0.3-3.1-2.9-2.2-4.5c0.6-1.1,1.5-1.5,2.8-1.4c18.1,2.1,36.2,4.1,54.4,6.2c1.8,0.2,2.7,1.4,2.6,3.2
	C84.4,41.2,83.3,42.2,82.1,42.2z"/>
<path fill="#363336" d="M0,30.5c-0.2-5.8,5.1-11,11-10.9c6,0.1,10.9,4.9,10.9,10.9c0,6-4.9,10.9-10.9,10.9C5.1,41.5-0.2,36.3,0,30.5
	z M15,30.7c0.1-2.1-1.6-4.1-3.8-4.2c-2.1-0.1-4.1,1.6-4.2,3.8c-0.1,2.2,1.6,4.2,3.8,4.3C12.9,34.6,14.8,32.9,15,30.7z"/>
<path fill="#363336" d="M201.9,0c5.8-0.2,11,5.2,10.9,11c-0.1,6-4.9,10.8-11,10.8c-6.1,0-10.8-4.8-10.9-10.9
	C190.8,5.2,196-0.3,201.9,0z M201.9,14.9c2.2,0,4-1.7,4.1-3.9c0.1-2.2-1.8-4.1-4.1-4.1c-2.2,0-4,1.8-4,4
	C197.9,13.1,199.7,14.9,201.9,14.9z"/>
<path fill="#363336" d="M109.7,40.7c0,6.1-4.9,10.9-10.9,10.9c-6.1,0-11-4.9-10.9-11c0.1-6,4.9-10.8,11-10.8
	C104.9,29.8,109.7,34.6,109.7,40.7z M102.8,40.6c0-2.2-1.9-4-4-4c-2.2,0-4,1.8-4,4c0,2.3,1.8,4.1,4.1,4
	C101.1,44.6,102.8,42.8,102.8,40.6z"/>
</svg>
